<?xml version="1.0" encoding="UTF-8"?>
<svg width="512px" height="512px" viewBox="0 0 512 512" version="1.1" xmlns="http://www.w3.org/2000/svg" xmlns:xlink="http://www.w3.org/1999/xlink">
    <title>favicon</title>
    <g id="favicon" stroke="none" fill="none" fill-rule="nonzero">
        <path d="M258.939394,463 C233.262626,463 209.151515,457.109375 186.606061,445.328125 C164.060606,433.546875 145.585859,417.131667 131.181818,396.0825 L41,263.19 L49.9242424,254.23625 C56.1868687,247.63875 63.9368687,243.86875 73.1742424,242.92625 C82.4116162,241.98375 90.7878788,244.182917 98.3030303,249.52375 L149.969697,285.33875 L149.969697,104.85 C149.969697,99.5091667 151.770202,95.0322917 155.371212,91.419375 C158.972222,87.8064583 163.434343,86 168.757576,86 C174.080808,86 178.542929,87.8064583 182.143939,91.419375 C185.744949,95.0322917 187.545455,99.5091667 187.545455,104.85 L187.545455,357.91125 L118.030303,309.3725 L162.651515,374.405 C173.611111,390.4275 187.545455,402.915625 204.454545,411.869375 C221.363636,420.823125 239.525253,425.3 258.939394,425.3 C291.191919,425.3 318.669192,413.911458 341.371212,391.134375 C364.073232,368.357292 375.424242,340.789167 375.424242,308.43 L375.424242,123.7 C375.424242,118.359167 377.224747,113.882292 380.825758,110.269375 C384.426768,106.656458 388.888889,104.85 394.212121,104.85 C399.535354,104.85 403.997475,106.656458 407.598485,110.269375 C411.199495,113.882292 413,118.359167 413,123.7 L413,308.43 C413,351.470833 398.04798,387.992708 368.143939,417.995625 C338.239899,447.998542 301.838384,463 258.939394,463 Z M225,257 L225,67.9090909 C225,62.5515152 226.772917,58.0606061 230.31875,54.4363636 C233.864583,50.8121212 238.258333,49 243.5,49 C248.741667,49 253.135417,50.8121212 256.68125,54.4363636 C260.227083,58.0606061 262,62.5515152 262,67.9090909 L262,257 L225,257 Z M300,256 L300,85.9 C300,80.545 301.772917,76.05625 305.31875,72.43375 C308.864583,68.81125 313.258333,67 318.5,67 C323.741667,67 328.135417,68.81125 331.68125,72.43375 C335.227083,76.05625 337,80.545 337,85.9 L337,256 L300,256 Z" id="hand" fill="#E8EAED"></path>
    </g>
</svg>