<?xml version="1.0" encoding="UTF-8"?>
<svg width="512px" height="513px" viewBox="0 0 512 513" version="1.1" xmlns="http://www.w3.org/2000/svg" xmlns:xlink="http://www.w3.org/1999/xlink">
    <title>favicon</title>
    <defs>
        <linearGradient x1="50%" y1="0%" x2="50%" y2="100%" id="linearGradient-1">
            <stop stop-color="#A6D4D1" offset="0%"></stop>
            <stop stop-color="#77B7B3" offset="100%"></stop>
        </linearGradient>
        <path d="M146.141456,-7.25467311e-15 L365.858544,7.25467311e-15 C416.675112,-4.215174e-15 435.102427,5.29105984 453.680205,15.2265641 C472.257983,25.1620684 486.837932,39.7420171 496.773436,58.3197949 C506.70894,76.8975727 512,95.3248882 512,146.141456 L512,365.858544 C512,416.675112 506.70894,435.102427 496.773436,453.680205 C486.837932,472.257983 472.257983,486.837932 453.680205,496.773436 C435.102427,506.70894 416.675112,512 365.858544,512 L146.141456,512 C95.3248882,512 76.8975727,506.70894 58.3197949,496.773436 C39.7420171,486.837932 25.1620684,472.257983 15.2265641,453.680205 C5.29105984,435.102427 0,416.675112 0,365.858544 L7.25467311e-15,146.141456 C-4.215174e-15,95.3248882 5.29105984,76.8975727 15.2265641,58.3197949 C25.1620684,39.7420171 39.7420171,25.1620684 58.3197949,15.2265641 C76.8975727,5.29105984 95.3248882,4.215174e-15 146.141456,-7.25467311e-15 Z" id="path-2"></path>
        <linearGradient x1="50%" y1="0%" x2="50%" y2="100%" id="linearGradient-3">
            <stop stop-color="#305DA5" offset="0%"></stop>
            <stop stop-color="#365280" offset="100%"></stop>
        </linearGradient>
        <path d="M146.141456,-1 L365.858544,-1 C416.675112,-1 435.102427,4.29105984 453.680205,14.2265641 C472.257983,24.1620684 486.837932,38.7420171 496.773436,57.3197949 C506.70894,75.8975727 512,94.3248882 512,145.141456 L512,364.858544 C512,415.675112 506.70894,434.102427 496.773436,452.680205 C486.837932,471.257983 472.257983,485.837932 453.680205,495.773436 C435.102427,505.70894 416.675112,511 365.858544,511 L146.141456,511 C95.3248882,511 76.8975727,505.70894 58.3197949,495.773436 C39.7420171,485.837932 25.1620684,471.257983 15.2265641,452.680205 C5.29105984,434.102427 0,415.675112 0,364.858544 L7.25467311e-15,145.141456 C-4.215174e-15,94.3248882 5.29105984,75.8975727 15.2265641,57.3197949 C25.1620684,38.7420171 39.7420171,24.1620684 58.3197949,14.2265641 C76.8975727,4.29105984 95.3248882,-1 146.141456,-1 Z" id="path-4"></path>
    </defs>
    <g id="favicon" stroke="none" fill="none" transform="translate(0, 1)">
        <g id="bg" fill-rule="evenodd">
            <use fill="#854D4D" xlink:href="#path-2"></use>
            <use fill="url(#linearGradient-1)" xlink:href="#path-2"></use>
        </g>
        <g id="blau" fill-rule="evenodd">
            <use fill="#854D4D" xlink:href="#path-4"></use>
            <use fill="url(#linearGradient-3)" xlink:href="#path-4"></use>
        </g>
        <path d="M258.939394,463 C233.262626,463 209.151515,457.109375 186.606061,445.328125 C164.060606,433.546875 145.585859,417.131667 131.181818,396.0825 L41,263.19 L49.9242424,254.23625 C56.1868687,247.63875 63.9368687,243.86875 73.1742424,242.92625 C82.4116162,241.98375 90.7878788,244.182917 98.3030303,249.52375 L149.969697,285.33875 L149.969697,104.85 C149.969697,99.5091667 151.770202,95.0322917 155.371212,91.419375 C158.972222,87.8064583 163.434343,86 168.757576,86 C174.080808,86 178.542929,87.8064583 182.143939,91.419375 C185.744949,95.0322917 187.545455,99.5091667 187.545455,104.85 L187.545455,357.91125 L118.030303,309.3725 L162.651515,374.405 C173.611111,390.4275 187.545455,402.915625 204.454545,411.869375 C221.363636,420.823125 239.525253,425.3 258.939394,425.3 C291.191919,425.3 318.669192,413.911458 341.371212,391.134375 C364.073232,368.357292 375.424242,340.789167 375.424242,308.43 L375.424242,123.7 C375.424242,118.359167 377.224747,113.882292 380.825758,110.269375 C384.426768,106.656458 388.888889,104.85 394.212121,104.85 C399.535354,104.85 403.997475,106.656458 407.598485,110.269375 C411.199495,113.882292 413,118.359167 413,123.7 L413,308.43 C413,351.470833 398.04798,387.992708 368.143939,417.995625 C338.239899,447.998542 301.838384,463 258.939394,463 Z M225,257 L225,67.9090909 C225,62.5515152 226.772917,58.0606061 230.31875,54.4363636 C233.864583,50.8121212 238.258333,49 243.5,49 C248.741667,49 253.135417,50.8121212 256.68125,54.4363636 C260.227083,58.0606061 262,62.5515152 262,67.9090909 L262,257 L225,257 Z M300,256 L300,85.9 C300,80.545 301.772917,76.05625 305.31875,72.43375 C308.864583,68.81125 313.258333,67 318.5,67 C323.741667,67 328.135417,68.81125 331.68125,72.43375 C335.227083,76.05625 337,80.545 337,85.9 L337,256 L300,256 Z" id="hand" fill="#E8EAED" fill-rule="nonzero"></path>
    </g>
</svg>